<svg xmlns="http://www.w3.org/2000/svg" xmlns:xlink="http://www.w3.org/1999/xlink" width="23.998" height="22.003" viewBox="0 0 23.998 22.003">
  <defs>
    <linearGradient id="linear-gradient" y1="0.5" x2="1" y2="0.5" gradientUnits="objectBoundingBox">
      <stop offset="0" stop-color="#00ffdb"/>
      <stop offset="0.16" stop-color="#2ac9e2"/>
      <stop offset="0.39" stop-color="#6283ec"/>
      <stop offset="0.598" stop-color="#8e4bf4"/>
      <stop offset="0.775" stop-color="#af22fa"/>
      <stop offset="0.915" stop-color="#c20afd"/>
      <stop offset="1" stop-color="#ca01ff"/>
    </linearGradient>
  </defs>
  <path id="envelope" d="M143.717,1064.585h-14a5.012,5.012,0,0,0-5,5v12a5.012,5.012,0,0,0,5,5h14a5.006,5.006,0,0,0,5-5v-12A5.006,5.006,0,0,0,143.717,1064.585Zm-14,2h14a3,3,0,0,1,2.779,1.886l-7.661,7.661a3.008,3.008,0,0,1-4.241,0l-7.661-7.661A3.005,3.005,0,0,1,129.72,1066.587Zm14,18h-14a3,3,0,0,1-3-3v-10.5l6.466,6.458a5,5,0,0,0,7.07,0l6.466-6.458v10.5A3.005,3.005,0,0,1,143.717,1084.587Z" transform="translate(-124.716 -1064.585)" fill="url(#linear-gradient)"/>
</svg>
