<svg xmlns="http://www.w3.org/2000/svg" width="23.998" height="22.003" viewBox="0 0 23.998 22.003">
  <path id="envelope" d="M33.259,1115.658h-14a5.006,5.006,0,0,0-5,5v12a5.006,5.006,0,0,0,5,5h14a5.006,5.006,0,0,0,5-5v-12A5.006,5.006,0,0,0,33.259,1115.658Zm-14,2h14a3,3,0,0,1,2.779,1.886l-7.661,7.661a3.008,3.008,0,0,1-4.241,0l-7.661-7.661A3,3,0,0,1,19.255,1117.66Zm14,18h-14a3.005,3.005,0,0,1-3-3v-10.5l6.473,6.458a5,5,0,0,0,7.07,0l6.458-6.458v10.5A3,3,0,0,1,33.259,1135.66Z" transform="translate(-14.258 -1115.658)" fill="#71bd61"/>
</svg>
