<svg id="Group_157" data-name="Group 157" xmlns="http://www.w3.org/2000/svg" xmlns:xlink="http://www.w3.org/1999/xlink" width="23.94" height="24.005" viewBox="0 0 23.94 24.005">
  <defs>
    <linearGradient id="linear-gradient" y1="0.5" x2="1" y2="0.5" gradientUnits="objectBoundingBox">
      <stop offset="0" stop-color="#00ffdb"/>
      <stop offset="0.16" stop-color="#2ac9e2"/>
      <stop offset="0.39" stop-color="#6283ec"/>
      <stop offset="0.598" stop-color="#8e4bf4"/>
      <stop offset="0.775" stop-color="#af22fa"/>
      <stop offset="0.915" stop-color="#c20afd"/>
      <stop offset="1" stop-color="#ca01ff"/>
    </linearGradient>
    <linearGradient id="linear-gradient-2" x1="0" y1="0.5" x2="1" y2="0.5" xlink:href="#linear-gradient"/>
  </defs>
  <path id="Path_2352" data-name="Path 2352" d="M51.226,1072.408a2.006,2.006,0,0,0-1.7-.39c-.439.188-.72.872-1.008,1.225a.427.427,0,0,1-.547.122,7.7,7.7,0,0,1-3.838-3.29.472.472,0,0,1,.065-.641,2.649,2.649,0,0,0,.7-1.131,2.505,2.505,0,0,0-.317-1.339,3.18,3.18,0,0,0-.986-1.491,1.365,1.365,0,0,0-1.476.216,3,3,0,0,0-1.03,2.369,2.924,2.924,0,0,0,.094.749,5.968,5.968,0,0,0,.72,1.663,13.616,13.616,0,0,0,.749,1.146,11.551,11.551,0,0,0,3.262,3.023,9.76,9.76,0,0,0,2.038.972,4.605,4.605,0,0,0,2.369.374,2.866,2.866,0,0,0,2.146-1.6,1.388,1.388,0,0,0,.1-.814C52.443,1073.012,51.68,1072.674,51.226,1072.408Z" transform="translate(-34.731 -1058.901)" fill-rule="evenodd" fill="url(#linear-gradient)"/>
  <g id="Group_156" data-name="Group 156">
    <g id="Group_155" data-name="Group 155">
      <path id="Path_2353" data-name="Path 2353" d="M40.205,1088.451l1.721-6.423a11.855,11.855,0,1,1,4.73,4.7Zm6.775-4.141.4.245a9.638,9.638,0,1,0-3.3-3.269l.245.411-.958,3.585Z" transform="translate(-40.205 -1064.446)" fill="url(#linear-gradient-2)"/>
    </g>
  </g>
</svg>
