<svg id="Smartphone_Outlined" data-name="Smartphone Outlined" xmlns="http://www.w3.org/2000/svg" width="16.337" height="26.143" viewBox="0 0 16.337 26.143">
  <path id="Path_2355" data-name="Path 2355" d="M28.463,1108.767H17.454a2.669,2.669,0,0,0-2.664,2.671v20.808a2.667,2.667,0,0,0,2.664,2.664H28.463a2.667,2.667,0,0,0,2.664-2.664v-20.808A2.669,2.669,0,0,0,28.463,1108.767ZM17.454,1110.4H28.463a1.031,1.031,0,0,1,1.03,1.036v.6H16.424v-.6A1.031,1.031,0,0,1,17.454,1110.4Zm12.038,3.269v13.889H16.424V1113.67Zm-1.03,19.606H17.454a1.03,1.03,0,0,1-1.03-1.03v-3.052H29.492v3.052A1.03,1.03,0,0,1,28.463,1133.276Z" transform="translate(-14.79 -1108.767)" fill="#702dd7"/>
  <ellipse id="Ellipse_158" data-name="Ellipse 158" cx="1.226" cy="1.226" rx="1.226" ry="1.226" transform="translate(6.942 21.243)" fill="#702dd7"/>
</svg>
