<svg xmlns="http://www.w3.org/2000/svg" width="24.746" height="24.638" viewBox="0 0 24.746 24.638">
  <path id="Path_2356" data-name="Path 2356" d="M15.02,1114.751a11.546,11.546,0,0,0,11.549,11.542,12.016,12.016,0,0,0,2.167-.2,6.74,6.74,0,0,0,9.2-9.332A11.557,11.557,0,0,0,24.444,1103.4a6.744,6.744,0,0,0-9.238,9.3A11.279,11.279,0,0,0,15.02,1114.751Zm11.671-8.208c3.73.216,5.9,1.858,6.12,3.385a1.571,1.571,0,0,1-1.714,1.778c-1.685,0-1.858-2.246-4.759-2.246-1.31,0-2.412.547-2.412,1.728,0,2.463,9.3,1.03,9.3,6.458,0,3.132-2.506,5.185-6.242,5.185-3.29,0-6.6-1.491-6.581-4.062a1.443,1.443,0,0,1,1.354-1.482c1.937,0,1.915,2.88,5,2.88,2.16,0,2.9-1.181,2.9-2.009,0-2.966-9.353-1.145-9.353-6.732C20.3,1108.4,22.788,1106.313,26.691,1106.543Z" transform="translate(-14.206 -1102.418)" fill="#1cab8d"/>
</svg>
